<?xml version="1.0" encoding="utf-8"?>
<!-- Generator: Adobe Illustrator 16.0.0, SVG Export Plug-In . SVG Version: 6.00 Build 0)  -->
<!DOCTYPE svg PUBLIC "-//W3C//DTD SVG 1.1//EN" "http://www.w3.org/Graphics/SVG/1.1/DTD/svg11.dtd">
<svg version="1.1" id="Layer_1" xmlns="http://www.w3.org/2000/svg" xmlns:xlink="http://www.w3.org/1999/xlink" x="0px" y="0px"
	 width="44.59px" height="20.021px" viewBox="22.126 -0.082 44.59 20.021" enable-background="new 22.126 -0.082 44.59 20.021"
	 xml:space="preserve">
<path fill="#7D8382" d="M27.561-0.07l1.728,0.011v2.234c0.207-0.045,0.479-0.069,0.815-0.069c0.248,0,0.508,0.008,0.785,0.024
	v-2.212h1.727v2.499c1.201,0.338,2.199,0.937,2.99,1.796c1.168,1.22,1.863,3.062,2.084,5.525l-2.277,0.013
	c0-1.306-0.398-2.608-1.195-3.915c-0.447-0.544-0.98-0.986-1.602-1.324v5.527l-1.727-0.011V4.051
	c-0.277-0.03-0.537-0.045-0.785-0.045c-0.345,0-0.615,0.026-0.815,0.081v5.964l-1.728-0.012V4.673
	c-0.631,0.323-1.125,0.729-1.483,1.22c-0.999,1.229-1.499,2.817-1.499,4.767c0,2.189,0.561,3.922,1.678,5.205
	c1.117,1.281,2.594,1.92,4.426,1.92h5.491v1.914H23.475l-0.014-1.914H25.9c-2.516-1.77-3.774-4.145-3.774-7.125
	c0-2.502,0.724-4.544,2.166-6.124c0.835-0.93,1.924-1.594,3.269-1.993V-0.07L27.561-0.07z"/>
<g>
	<path fill="#7D8382" d="M39.83,14.362h4.475v1.361H39.83V14.362z"/>
	<path fill="#7D8382" d="M53.103,14.885c0,1.482-0.396,3.085-1.188,4.807h-1.519c0.808-1.594,1.212-3.196,1.212-4.807
		c0-2.213-0.691-3.32-2.075-3.32s-2.075,1.115-2.075,3.346c0,1.594,0.401,3.189,1.203,4.789h-1.527
		c-0.779-1.727-1.17-3.34-1.17-4.84c0-2.971,1.189-4.457,3.569-4.457S53.103,11.896,53.103,14.885z"/>
	<path fill="#7D8382" d="M54.763,15.357c0-3.303,1.162-4.955,3.486-4.955c1.355,0,2.321,0.52,2.896,1.561
		c0.697-1.013,1.45-1.519,2.258-1.519c2.209,0,3.312,1.472,3.312,4.416c-0.011,1.771-0.65,3.438-1.918,4.998h-1.859
		c1.522-1.533,2.283-3.186,2.283-4.956c0.011-2.203-0.625-3.304-1.909-3.304c-0.559,0-1.146,0.515-1.76,1.544
		c0.127,0.41,0.19,1.137,0.19,2.183c-0.154,3.077-1.33,4.615-3.527,4.615C55.914,19.939,54.763,18.412,54.763,15.357z
		 M60.241,15.357c0-2.534-0.67-3.801-2.009-3.801c-1.317,0-1.976,1.267-1.976,3.801c0,2.28,0.653,3.42,1.959,3.42
		C59.566,18.777,60.241,17.638,60.241,15.357z"/>
</g>
</svg>
