<?xml version="1.0" encoding="utf-8"?>
<!-- Generator: Adobe Illustrator 16.0.0, SVG Export Plug-In . SVG Version: 6.00 Build 0)  -->
<!DOCTYPE svg PUBLIC "-//W3C//DTD SVG 1.1//EN" "http://www.w3.org/Graphics/SVG/1.1/DTD/svg11.dtd">
<svg version="1.1" id="Layer_1" xmlns="http://www.w3.org/2000/svg" xmlns:xlink="http://www.w3.org/1999/xlink" x="0px" y="0px"
	 width="20px" height="28px" viewBox="19.907 -4.026 20 28" enable-background="new 19.907 -4.026 20 28" xml:space="preserve">
<path fill="#FFFFFF" d="M27.56-0.07l1.728,0.011v2.234c0.207-0.045,0.479-0.069,0.815-0.069c0.248,0,0.509,0.008,0.785,0.024v-2.212
	h1.727v2.499c1.202,0.338,2.2,0.937,2.991,1.796c1.168,1.22,1.863,3.062,2.084,5.525l-2.278,0.013c0-1.306-0.398-2.608-1.195-3.915
	c-0.447-0.544-0.98-0.986-1.602-1.324v5.527l-1.727-0.011V4.051c-0.276-0.03-0.537-0.045-0.785-0.045
	c-0.344,0-0.615,0.026-0.815,0.081v5.964l-1.728-0.012V4.673c-0.63,0.323-1.124,0.729-1.483,1.22
	c-0.999,1.229-1.499,2.817-1.499,4.767c0,2.189,0.561,3.922,1.678,5.205c1.117,1.281,2.593,1.92,4.426,1.92h5.491v1.914H23.474
	l-0.013-1.914H25.9c-2.515-1.77-3.774-4.145-3.774-7.125c0-2.502,0.723-4.544,2.166-6.124c0.835-0.93,1.924-1.594,3.269-1.993V-0.07
	z"/>
</svg>
