<?xml version="1.0" encoding="utf-8"?>
<!-- Generator: Adobe Illustrator 16.0.0, SVG Export Plug-In . SVG Version: 6.00 Build 0)  -->
<!DOCTYPE svg PUBLIC "-//W3C//DTD SVG 1.1//EN" "http://www.w3.org/Graphics/SVG/1.1/DTD/svg11.dtd">
<svg version="1.1" id="Layer_1" xmlns="http://www.w3.org/2000/svg" xmlns:xlink="http://www.w3.org/1999/xlink" x="0px" y="0px"
	 width="392.873px" height="63.875px" viewBox="0 0 392.873 63.875" enable-background="new 0 0 392.873 63.875"
	 xml:space="preserve">
<g id="Background_xA0_Image_1_">
</g>
<g id="Lari_Expl_orer">
</g>
<path fill="#6F7070" d="M31.796,27.93V17.822c0.746,0.457,1.421,1.064,2.021,1.822c1.553,1.975,2.328,4.662,2.328,8.067h3.844
	c0-4.271-1.137-7.67-3.41-10.196c-1.336-1.492-2.931-2.539-4.783-3.141v-2.852h-2.707v2.273c-0.504-0.048-1.021-0.072-1.551-0.072
	c-0.47,0-0.928,0.019-1.373,0.055v-2.256h-2.707v2.779c-1.961,0.602-3.633,1.672-5.017,3.213c-2.262,2.526-3.394,5.924-3.394,10.196
	c0,4.259,1.318,7.58,3.953,9.961c0.156,0.146,0.318,0.283,0.487,0.415h-3.194v3.068h11.045h0.488h9.149v-3.068H26.689
	c-1.889-0.24-3.585-1.107-5.089-2.599c-1.805-1.792-2.707-4.386-2.707-7.777c0-3.405,0.781-6.094,2.346-8.067
	c0.649-0.817,1.391-1.468,2.221-1.949v10.232h2.707V16.794c0.433-0.071,0.89-0.108,1.371-0.108c0.543,0,1.06,0.043,1.553,0.127
	V27.93H31.796z"/>
<path fill="#6F7070" d="M17.825,45.2c-2.14-1.181-4.031-2.726-5.619-4.595c-3.478-4.092-5.152-9.301-4.717-14.668
	c0.437-5.367,2.93-10.239,7.021-13.717c0.422-0.359,0.474-0.992,0.115-1.414c-0.088-0.104-0.191-0.184-0.305-0.242
	c-0.244,0.19-0.484,0.386-0.721,0.586C4.55,18.843,3.444,32.465,11.137,41.516c1.917,2.256,4.249,4.053,6.832,5.338
	c0.098-0.08,0.187-0.172,0.252-0.289C18.487,46.078,18.311,45.468,17.825,45.2z"/>
<path fill="#6F7070" d="M55.024,29.793c0.596-7.338-1.703-14.469-6.471-20.079C43.308,3.54,35.647,0,27.538,0
	C21.015,0,14.68,2.33,9.7,6.561C-1.88,16.404-3.294,33.834,6.549,45.414c5.247,6.173,12.907,9.714,21.015,9.714
	c6.523,0,12.859-2.331,17.838-6.562C51.012,43.799,54.429,37.131,55.024,29.793z M43.323,46.12
	c-4.399,3.737-9.996,5.797-15.76,5.797c-7.165,0-13.934-3.128-18.568-8.583C0.3,33.104,1.548,17.704,11.78,9.007
	c4.398-3.737,9.995-5.796,15.758-5.796c7.166,0,13.935,3.128,18.569,8.582c4.212,4.957,6.243,11.257,5.718,17.74
	C51.298,36.018,48.278,41.907,43.323,46.12z"/>
<path fill="#6F7070" d="M52.55,49.953l-2.081-2.448c-0.993,1.136-2.077,2.208-3.248,3.203c-1.167,0.991-2.404,1.882-3.692,2.679
	l2.088,2.459l0.977-0.83l7.514,8.859h8.561l-11.1-13.088L52.55,49.953z"/>
<path fill="#6F7070" d="M39.206,9.454c-0.104,0.067-0.198,0.153-0.275,0.262c-0.32,0.453-0.212,1.079,0.24,1.399
	c1.377,0.973,2.629,2.119,3.724,3.408c1.647,1.939,2.897,4.125,3.713,6.498c0.144,0.416,0.532,0.679,0.949,0.679
	c0.108,0,0.218-0.019,0.326-0.056c0.125-0.043,0.235-0.109,0.329-0.191c-0.84-2.846-2.269-5.512-4.248-7.84
	C42.577,11.979,40.969,10.588,39.206,9.454z"/>
<g>
	<path fill="#6F7070" d="M68.496,15.272v-0.725h-2.933v0.725c0,2.799,1.133,5.256,3.367,7.303c1.947,1.784,2.894,4.149,2.894,7.23
		c0.012,7.643-3.022,7.652-4.018,7.655c-0.993,0-4.016,0-4.016-7.229c0-1.104,0.123-2.6,0.367-4.441l0.109-0.826h-3.023l-0.092,0.61
		c-0.214,1.41-0.323,2.977-0.323,4.658c0,6.703,2.324,10.103,6.907,10.103c4.679,0,7.051-3.543,7.051-10.53
		c0-3.72-1.13-6.733-3.36-8.957C69.481,18.908,68.496,17.033,68.496,15.272z"/>
	<path fill="#6F7070" d="M98.357,21.812c-2.031,0-3.593,0.825-4.659,2.458c-1.11-1.632-2.679-2.458-4.677-2.458
		c-0.328,0-0.655,0.03-0.982,0.091c2.528-2.349,6.387-3.845,11.521-4.458l0.865-0.103l-0.995-2.87l-0.546,0.083
		c-6.65,1.003-10.995,2.878-13.281,5.731c-2.253,2.81-3.39,5.786-3.379,8.843c0,4.022,0.497,7.546,1.478,10.476l0.162,0.482h3.003
		l-0.24-0.918c-0.956-3.673-1.44-7.05-1.44-10.041c0-2.99,1.252-4.383,3.966-4.383c0.91,0,1.584,0.248,2.06,0.758
		c0.63,0.675,0.943,1.857,0.928,3.519v5.757h3.044l0.033-5.757c0-3.833,1.729-4.277,3.03-4.277c2.659,0,3.906,1.491,3.923,4.689
		c0,2.815-0.578,6.078-1.719,9.697l-0.3,0.955h3.167l0.17-0.459c1.091-2.937,1.644-6.365,1.644-10.193
		C105.133,24.448,102.79,21.812,98.357,21.812z"/>
	<path fill="#6F7070" d="M119.542,14.562c-4.636,0-6.986,4.207-6.986,12.503c0,3.896,0.629,8.179,1.87,12.73l0.143,0.522h3.042
		l-0.212-0.9c-1.238-5.272-1.87-9.429-1.879-12.353c0-6.391,1.356-9.631,4.031-9.631c2.657,0,4.002,3.24,4.002,9.631
		c0,2.921-0.623,7.078-1.851,12.354l-0.209,0.898h3.041l0.142-0.525c1.22-4.533,1.839-8.815,1.839-12.728
		C126.514,18.769,124.168,14.562,119.542,14.562z"/>
	<path fill="#6F7070" d="M143.749,23.287c0-0.613,0.075-1.479,0.224-2.572l0.113-0.829h-3.01l-0.068,0.644
		c-0.089,0.842-0.134,1.79-0.134,2.818c0,1.201,0.792,2.459,2.422,3.847c1.285,1.095,1.91,2.609,1.91,4.628
		c0,5.052-2.215,5.637-3.88,5.637c-1.777,0-4.143-0.603-4.154-5.806V14.547h-2.961v17.107c0,7.174,3.865,8.68,7.108,8.68
		c3.125,0,6.85-1.477,6.85-8.511c0-2.455-0.818-4.494-2.432-6.058C143.839,23.927,143.753,23.344,143.749,23.287z"/>
	<path fill="#6F7070" d="M180.305,22.669c0.875-1.27,1.321-2.514,1.332-3.711c0-2.012-0.868-4.414-5.003-4.427
		c-4.283,0.013-5.191,2.213-5.198,4.073c0.009,0.535,0.045,1.039,0.108,1.498l0.085,0.634l2.848-0.061l-0.116-0.816
		c-0.042-0.299-0.064-0.686-0.064-1.146c0-0.354,0-1.293,2.34-1.293c2.038,0,2.038,0.926,2.038,1.36
		c-0.016,1.225-0.46,2.278-1.356,3.212c-5.197,0.278-7.941,3.443-7.941,9.172c0,7.566,4.182,9.154,7.691,9.154
		c3.397,0,7.446-1.588,7.446-9.152C184.523,26.793,183.109,23.941,180.305,22.669z M172.339,31.167
		c0.018-4.298,1.53-6.314,4.758-6.344c1.914,0.019,4.456,0.7,4.456,6.342s-2.601,6.295-4.557,6.295
		C175.002,37.46,172.351,36.807,172.339,31.167z"/>
	<path fill="#6F7070" d="M201.613,23.332c0.741-1.003,1.115-2.186,1.115-3.532c0-3.436-1.812-5.253-5.235-5.253
		c-4.592,0-5.555,2.974-5.555,5.467c0,2.211,0.887,3.813,2.58,4.701c-1.496,1.417-2.253,3.64-2.253,6.633
		c0,7.411,3.788,8.977,6.966,8.985h0.004c3.181-0.009,6.976-1.574,6.976-8.985C206.211,27.035,204.666,24.345,201.613,23.332z
		 M199.175,22.174c-0.385,0.431-1.004,0.65-1.842,0.65h-0.002h-0.081c-1.625-0.133-2.35-1.005-2.35-2.825
		c0-1.788,0.75-2.554,2.512-2.564c1.649,0.01,2.354,0.791,2.354,2.61C199.767,21.016,199.568,21.732,199.175,22.174z
		 M196.477,26.792c0.636-0.677,1.522-1.005,2.709-1.005h0.047c1.725,0,4.017,0.566,4.017,5.469c0,5.55-2.29,6.198-4.012,6.204
		c-1.714,0-3.996-0.634-4.007-6.113C195.225,29.212,195.646,27.679,196.477,26.792z"/>
	<path fill="#6F7070" d="M221.303,15.272v-0.725h-2.933v0.725c0,2.799,1.133,5.256,3.366,7.303c1.948,1.784,2.894,4.149,2.894,7.23
		c0.013,7.643-3.021,7.652-4.016,7.655c-0.994,0-4.017,0-4.017-7.229c0-1.104,0.121-2.6,0.368-4.441l0.108-0.826h-3.025l-0.092,0.61
		c-0.214,1.41-0.323,2.977-0.323,4.658c0,6.703,2.325,10.103,6.907,10.103c4.679,0,7.052-3.543,7.052-10.53
		c0-3.72-1.131-6.733-3.362-8.957C222.289,18.908,221.303,17.033,221.303,15.272z"/>
	<path fill="#6F7070" d="M241.994,14.547c-5.209,0-6.302,2.815-6.302,5.176v0.725h3.062v-0.725c0-1.066,0.368-2.289,3.247-2.289
		c3.572,0,3.999,1.589,4.01,2.778v3.163c-1.108-1.018-2.448-1.533-4.01-1.533c-3.188,0-6.988,1.621-6.988,9.338
		c0,7.577,3.945,9.168,7.254,9.168c3.059,0,6.706-1.453,6.706-8.373V20.228C248.974,17.637,247.763,14.547,241.994,14.547z
		 M241.994,24.747c0.993,0,4.018,0,4.018,7.181c-0.013,4.959-2.11,5.533-3.688,5.533c-1.866,0-4.347-0.654-4.347-6.311
		C237.978,25.41,240.27,24.747,241.994,24.747z"/>
	<path fill="#6F7070" d="M268.259,25.473c1.37-1.021,2.086-2.602,2.096-4.648c0-1.826-0.587-3.817-1.749-5.919l-0.198-0.358h-3.742
		l0.784,1.15c1.314,1.932,1.975,3.653,1.957,5.127c0,2.282-1.028,3.305-3.332,3.313h-3.418v2.781h3.414
		c2.506,0.009,3.625,1.196,3.625,3.849v1.912c0,3.262-1.312,4.781-4.125,4.781c-1.687,0-3.924-0.543-3.924-5.24
		c0-0.436,0.032-1.068,0.098-1.88l0.064-0.787h-2.93l-0.074,0.637c-0.08,0.696-0.12,1.378-0.12,2.03
		c0,6.706,3.752,8.114,6.897,8.114c4.617,0,7.063-2.646,7.075-7.655v-1.915C270.646,27.822,269.538,26.276,268.259,25.473z"/>
	<path fill="#6F7070" d="M289.413,26.298c1.638-1.236,2.466-3.039,2.466-5.377c0-2.915-1.144-6.389-6.583-6.389
		c-5.405,0-6.541,3.09-6.541,5.681c0,0.618,0.026,1.291,0.075,1.996l0.047,0.672h2.945l-0.048-0.772
		c-0.046-0.764-0.066-1.396-0.058-1.896c0-1.3,0.412-2.793,3.613-2.793c2.521,0,3.644,1.061,3.646,3.396
		c-0.232,3.801-1.992,4.24-3.319,4.24h-2.396v2.735h2.396c2.365,0,3.419,1.13,3.419,3.665v2.142c0,2.671-1.159,3.863-3.757,3.863
		c-2.927,0-4.292-1.418-4.292-4.46c0-0.9,0.062-1.779,0.179-2.614l0.12-0.833h-2.972l-0.104,0.592
		c-0.123,0.705-0.185,1.638-0.185,2.855c0,4.798,2.51,7.334,7.259,7.334c4.383,0,6.698-2.307,6.698-6.672V31.46
		C292.021,29.07,291.126,27.311,289.413,26.298z"/>
	<path fill="#6F7070" d="M322.263,14.623c-1.865,0-3.372,0.721-4.489,2.146c-0.957-1.477-2.299-2.227-4.002-2.237
		c-1.567,0-2.882,0.746-3.914,2.221c-1.079-1.415-2.604-2.13-4.55-2.13c-2.681,0-5.877,1.453-5.877,8.374
		c0,5.095,2.365,8.926,7.038,11.413c-1.542,0.539-2.693,1.171-3.494,1.915l-0.556,0.515l1.922,2.007l0.475-0.43
		c1.469-1.326,3.607-2.01,6.281-2.033c3.421,0.372,5.698,1.531,6.764,3.443l0.198,0.354h3.465l-0.546-1.07
		c-1.456-2.85-4.319-4.638-8.462-5.301c-6.811-1.694-10.124-5.201-10.124-10.721c0-5.592,2.196-5.592,2.916-5.592
		c1.481,0,3.18,0.466,3.19,4.095l0.018,5.22h2.828v-5.223c0-4.154,1.764-4.154,2.428-4.154c1.073,0,2.499,0.431,2.499,4.159
		l0.032,5.218h2.857v-5.223c0-3.626,1.657-4.092,3.145-4.092c1.376,0,3.205,0.511,3.205,4.934c0,2.118-0.681,4.764-2.025,7.866
		l-0.444,1.028h3.249l0.182-0.431c1.327-3.189,2.001-6.037,2.001-8.462C328.472,15.978,325.095,14.623,322.263,14.623z"/>
	<path fill="#6F7070" d="M343.284,14.532c-5.311,0-6.424,3.297-6.424,6.063c0,0.627,0.087,1.487,0.269,2.629l0.093,0.605h2.986
		l-0.17-0.874c-0.135-0.681-0.198-1.494-0.188-2.424c-0.004-1,0.222-1.729,0.688-2.229c0.55-0.585,1.479-0.883,2.759-0.883
		c2.476,0,3.585,1.249,3.593,4.047v11.302c-0.008,3.2-1.283,4.691-4.008,4.691c-2.745,0-4.025-1.49-4.025-4.689
		c0-0.727,0.076-1.698,0.225-2.886l0.104-0.821h-2.97l-0.083,0.621c-0.168,1.229-0.247,2.27-0.238,3.084
		c-0.006,2.489,0.598,4.398,1.796,5.674c1.179,1.255,2.925,1.892,5.191,1.892c4.561,0,6.97-2.689,6.97-7.777v-11.09
		C349.852,16.93,347.581,14.532,343.284,14.532z"/>
	<path fill="#6F7070" d="M368.898,26.298c1.638-1.236,2.464-3.039,2.464-5.377c0-2.915-1.142-6.389-6.583-6.389
		c-5.404,0-6.539,3.09-6.539,5.681c0,0.618,0.024,1.291,0.074,1.996l0.046,0.672h2.945l-0.048-0.772
		c-0.046-0.764-0.067-1.396-0.056-1.896c0-1.3,0.41-2.793,3.611-2.793c2.521,0,3.644,1.061,3.646,3.396
		c-0.23,3.801-1.992,4.24-3.319,4.24h-2.396v2.735h2.396c2.365,0,3.419,1.13,3.419,3.665v2.142c0,2.671-1.157,3.863-3.758,3.863
		c-2.926,0-4.291-1.418-4.291-4.46c0-0.9,0.062-1.779,0.181-2.614l0.12-0.833h-2.974l-0.104,0.592
		c-0.123,0.705-0.185,1.638-0.185,2.855c0,4.798,2.51,7.334,7.261,7.334c4.381,0,6.696-2.307,6.696-6.672V31.46
		C371.505,29.07,370.61,27.311,368.898,26.298z"/>
	<path fill="#6F7070" d="M385.9,14.562c-4.637,0-6.984,4.207-6.984,12.503c0,3.896,0.627,8.179,1.868,12.73l0.143,0.522h3.04
		l-0.21-0.9c-1.237-5.272-1.87-9.429-1.88-12.353c0-6.391,1.355-9.631,4.031-9.631c2.655,0,4.003,3.24,4.003,9.631
		c0,2.921-0.624,7.078-1.852,12.354l-0.209,0.898h3.041l0.141-0.525c1.22-4.533,1.841-8.815,1.841-12.728
		C392.873,18.769,390.528,14.562,385.9,14.562z"/>
</g>
</svg>
