<?xml version="1.0" encoding="utf-8"?>
<!-- Generator: Adobe Illustrator 16.0.0, SVG Export Plug-In . SVG Version: 6.00 Build 0)  -->
<!DOCTYPE svg PUBLIC "-//W3C//DTD SVG 1.1//EN" "http://www.w3.org/Graphics/SVG/1.1/DTD/svg11.dtd">
<svg version="1.1" xmlns="http://www.w3.org/2000/svg" xmlns:xlink="http://www.w3.org/1999/xlink" x="0px" y="0px"
	 width="392.873px" height="63.875px" viewBox="0 0 392.873 63.875" enable-background="new 0 0 392.873 63.875"
	 xml:space="preserve">
<g id="Background_xA0_Image_1_">
</g>
<g id="Lari_Expl_orer">
</g>
<g id="Vector_Smart_Object_xA0_Image_1_">
	<path fill="#6F7070" d="M4.079,38.48V13.485c0,0-0.68-0.28-2.08-0.28c-1.32,0-2,0.28-2,0.28V42h16.037
		c0.2-0.52,0.32-1.12,0.32-1.76c0-0.64-0.12-1.28-0.32-1.76H4.079z"/>
	<path fill="#6F7070" d="M37.478,13.205c-1.4,0-2.399,0.28-2.399,0.28L25.04,41.72c0,0,0.64,0.28,1.88,0.28
		c1.28,0,1.959-0.28,1.959-0.28l2.52-7.039h11.838l2.479,7.039c0,0,0.64,0.28,2,0.28c1.48,0,2.2-0.28,2.2-0.28L39.878,13.485
		C39.878,13.485,38.998,13.205,37.478,13.205z M32.559,31.362l3.679-10.118c0.68-2,1.04-3.6,1.04-3.6h0.12c0,0,0.32,1.52,1.04,3.6
		l3.639,10.118H32.559z"/>
	<path fill="#6F7070" d="M80.156,21.644c0-5.039-3.359-8.438-8.599-8.438H61.319V41.72c0,0,0.6,0.28,2.08,0.28c1.32,0,2-0.28,2-0.28
		V30.042h4.719l6.639,11.678c0,0,0.84,0.28,2.319,0.28c1.56,0,2.4-0.28,2.4-0.28l-6.959-12.078
		C78.037,28.602,80.156,25.603,80.156,21.644z M65.399,26.643V16.604h5.639c3.12,0,4.879,1.839,4.879,5.039
		c0,3.159-1.76,4.999-4.879,4.999H65.399z"/>
	<path fill="#6F7070" d="M93.559,13.485V41.72c0,0,0.6,0.28,2.04,0.28c1.32,0,2.04-0.28,2.04-0.28V13.485c0,0-0.68-0.28-2.08-0.28
		C94.239,13.205,93.559,13.485,93.559,13.485z"/>
	<path fill="#6F7070" d="M132.238,38.681v-9.599h10.159c0.2-0.52,0.32-1.12,0.32-1.68c0-0.56-0.16-1.12-0.32-1.6h-10.159v-9.278
		h12.158c0.2-0.52,0.32-1.12,0.32-1.76c0-0.56-0.16-1.08-0.32-1.56h-16.237V42h16.637c0.2-0.56,0.32-1.12,0.32-1.72
		c0-0.56-0.16-1.08-0.32-1.6H132.238z"/>
	<path fill="#6F7070" d="M177.675,13.485c-0.52-0.16-1.24-0.28-2.16-0.28c-0.88,0-1.56,0.12-2.16,0.28l-6.639,10.438l-6.519-10.438
		c0,0-0.92-0.28-2.28-0.28c-1.56,0-2.359,0.28-2.359,0.28l8.358,13.558l-9.318,14.678c0.6,0.2,1.48,0.28,2.399,0.28
		c0.8,0,1.52-0.12,2.04-0.28l7.398-11.718l7.319,11.678c0,0,0.84,0.32,2.28,0.32c1.52,0,2.359-0.36,2.359-0.36l-9.278-14.837
		L177.675,13.485z"/>
	<path fill="#6F7070" d="M200.276,13.205h-10.438V41.72c0,0,0.6,0.28,2.08,0.28c1.32,0,2-0.28,2-0.28V30.762h6.359
		c5.279,0,8.599-3.559,8.599-8.758C208.875,16.764,205.556,13.205,200.276,13.205z M199.757,27.362h-5.839V16.604h5.839
		c3.159,0,4.879,2,4.879,5.399C204.636,25.363,202.916,27.362,199.757,27.362z"/>
	<path fill="#6F7070" d="M225.357,38.48V13.485c0,0-0.68-0.28-2.08-0.28c-1.32,0-2,0.28-2,0.28V42h16.037
		c0.2-0.52,0.32-1.12,0.32-1.76c0-0.64-0.12-1.28-0.32-1.76H225.357z"/>
	<path fill="#6F7070" d="M329.874,21.644c0-5.039-3.359-8.438-8.599-8.438h-10.238V41.72c0,0,0.6,0.28,2.08,0.28
		c1.32,0,2-0.28,2-0.28V30.042h4.719l6.639,11.678c0,0,0.84,0.28,2.319,0.28c1.56,0,2.4-0.28,2.4-0.28l-6.959-12.078
		C327.754,28.602,329.874,25.603,329.874,21.644z M315.116,26.643V16.604h5.639c3.12,0,4.879,1.839,4.879,5.039
		c0,3.159-1.76,4.999-4.879,4.999H315.116z"/>
	<path fill="#6F7070" d="M347.356,38.681v-9.599h10.158c0.2-0.52,0.32-1.12,0.32-1.68c0-0.56-0.16-1.12-0.32-1.6h-10.158v-9.278
		h12.158c0.2-0.52,0.32-1.12,0.32-1.76c0-0.56-0.16-1.08-0.32-1.56h-16.237V42h16.637c0.2-0.56,0.32-1.12,0.32-1.72
		c0-0.56-0.16-1.08-0.32-1.6H347.356z"/>
	<path fill="#6F7070" d="M385.915,29.642c3.52-1.04,5.639-4.04,5.639-7.999c0-5.039-3.359-8.438-8.599-8.438h-10.238V41.72
		c0,0,0.6,0.28,2.08,0.28c1.32,0,2-0.28,2-0.28V30.042h4.719l6.639,11.678c0,0,0.84,0.28,2.319,0.28c1.56,0,2.399-0.28,2.399-0.28
		L385.915,29.642z M376.796,26.643V16.604h5.639c3.12,0,4.879,1.839,4.879,5.039c0,3.159-1.76,4.999-4.879,4.999H376.796z"/>
	<path fill="#6F7070" d="M277.904,27.929V17.822c0.746,0.458,1.42,1.065,2.021,1.823c1.552,1.974,2.328,4.662,2.328,8.067h3.844
		c0-4.271-1.137-7.67-3.411-10.197c-1.335-1.492-2.93-2.539-4.782-3.14v-2.851h-2.707v2.273c-0.505-0.048-1.022-0.072-1.552-0.072
		c-0.469,0-0.927,0.018-1.372,0.054v-2.255h-2.707v2.779c-1.961,0.601-3.633,1.672-5.017,3.212
		c-2.262,2.527-3.393,5.925-3.393,10.197c0,4.258,1.317,7.58,3.953,9.961c0.156,0.145,0.318,0.283,0.487,0.415h-3.194v3.068h11.045
		h0.487h9.15v-3.068h-10.287c-1.889-0.241-3.585-1.107-5.089-2.599c-1.805-1.792-2.707-4.385-2.707-7.777
		c0-3.405,0.781-6.094,2.346-8.067c0.649-0.818,1.39-1.468,2.22-1.949v10.232h2.707V16.794c0.433-0.072,0.89-0.108,1.372-0.108
		c0.542,0,1.059,0.042,1.552,0.126v11.117H277.904z"/>
	<path fill="#6F7070" d="M263.933,45.2c-2.14-1.18-4.031-2.726-5.619-4.595c-3.478-4.091-5.153-9.301-4.717-14.668
		s2.929-10.239,7.021-13.716c0.422-0.36,0.474-0.993,0.115-1.415c-0.087-0.103-0.191-0.183-0.305-0.241
		c-0.244,0.19-0.484,0.385-0.72,0.585c-9.051,7.693-10.156,21.315-2.464,30.366c1.917,2.255,4.249,4.053,6.832,5.337
		c0.098-0.08,0.187-0.171,0.252-0.288C264.595,46.078,264.418,45.468,263.933,45.2z"/>
	<path fill="#6F7070" d="M301.132,29.793c0.595-7.338-1.703-14.469-6.471-20.079C289.415,3.54,281.755,0,273.646,0
		c-6.524,0-12.859,2.33-17.838,6.561c-11.581,9.843-12.995,27.273-3.152,38.853c5.247,6.173,12.907,9.714,21.015,9.714
		c6.524,0,12.859-2.331,17.838-6.562C297.119,43.799,300.536,37.131,301.132,29.793z M289.43,46.12
		c-4.399,3.738-9.995,5.797-15.759,5.797c-7.165,0-13.933-3.128-18.568-8.583c-8.696-10.231-7.447-25.63,2.785-34.327
		c4.398-3.738,9.995-5.796,15.758-5.796c7.166,0,13.934,3.128,18.569,8.582c4.212,4.957,6.243,11.257,5.717,17.74
		C297.405,36.017,294.386,41.907,289.43,46.12z"/>
	<path fill="#6F7070" d="M298.657,49.953l-2.081-2.448c-0.993,1.136-2.077,2.208-3.248,3.203c-1.167,0.991-2.404,1.882-3.693,2.679
		l2.089,2.458l0.976-0.83l7.514,8.86h8.56l-11.099-13.088L298.657,49.953z"/>
	<path fill="#6F7070" d="M285.314,9.454c-0.105,0.067-0.199,0.154-0.276,0.262c-0.32,0.453-0.212,1.079,0.24,1.399
		c1.377,0.973,2.629,2.12,3.724,3.408c1.648,1.94,2.898,4.126,3.713,6.499c0.143,0.416,0.532,0.678,0.949,0.678
		c0.108,0,0.218-0.018,0.326-0.055c0.125-0.043,0.236-0.11,0.33-0.192c-0.84-2.845-2.269-5.511-4.248-7.84
		C288.685,11.979,287.076,10.588,285.314,9.454z"/>
</g>
</svg>
