<?xml version="1.0" encoding="utf-8"?>
<!-- Generator: Adobe Illustrator 16.0.0, SVG Export Plug-In . SVG Version: 6.00 Build 0)  -->
<!DOCTYPE svg PUBLIC "-//W3C//DTD SVG 1.1//EN" "http://www.w3.org/Graphics/SVG/1.1/DTD/svg11.dtd">
<svg version="1.1" id="Layer_1" xmlns="http://www.w3.org/2000/svg" xmlns:xlink="http://www.w3.org/1999/xlink" x="0px" y="0px"
	 width="20px" height="28px" viewBox="19.907 -4.026 20 28" enable-background="new 19.907 -4.026 20 28" xml:space="preserve">
<path fill="#FFFFFF" d="M30.427,22.496h-1.213l-0.013-4.059c-0.854-0.018-1.705-0.129-2.556-0.332
	c-0.849-0.203-1.701-0.506-2.555-0.908V14.77c0.826,0.574,1.663,1.01,2.507,1.299c0.846,0.293,1.718,0.445,2.616,0.453v-6.147
	c-1.789-0.324-3.089-0.873-3.901-1.646c-0.815-0.772-1.222-1.834-1.222-3.183c0-1.465,0.44-2.62,1.321-3.464
	c0.88-0.847,2.146-1.331,3.802-1.457v-3.168h1.213v3.128c0.746,0.037,1.473,0.124,2.178,0.264c0.707,0.14,1.396,0.33,2.069,0.573
	v2.359C34,3.404,33.312,3.111,32.605,2.905C31.9,2.698,31.173,2.577,30.427,2.54v5.757c1.833,0.314,3.184,0.877,4.053,1.686
	c0.866,0.811,1.301,1.916,1.301,3.318c0,1.52-0.46,2.715-1.382,3.594c-0.92,0.877-2.245,1.383-3.972,1.516V22.496z M29.214,8.055
	V2.525c-0.942,0.118-1.661,0.414-2.149,0.891c-0.49,0.477-0.735,1.109-0.735,1.9c0,0.772,0.227,1.375,0.681,1.808
	S28.199,7.866,29.214,8.055z M30.427,10.643v5.838c1.025-0.15,1.798-0.475,2.319-0.969c0.521-0.496,0.781-1.146,0.781-1.955
	c0-0.793-0.249-1.42-0.747-1.889C32.281,11.201,31.497,10.859,30.427,10.643z"/>
</svg>
