<?xml version="1.0" encoding="utf-8"?>
<!-- Generator: Adobe Illustrator 16.0.0, SVG Export Plug-In . SVG Version: 6.00 Build 0)  -->
<!DOCTYPE svg PUBLIC "-//W3C//DTD SVG 1.1//EN" "http://www.w3.org/Graphics/SVG/1.1/DTD/svg11.dtd">
<svg version="1.1" id="Layer_1" xmlns="http://www.w3.org/2000/svg" xmlns:xlink="http://www.w3.org/1999/xlink" x="0px" y="0px"
	 width="41.294px" height="25.039px" viewBox="24.09 -2.543 41.294 25.039" enable-background="new 24.09 -2.543 41.294 25.039"
	 xml:space="preserve">
<path fill="#7D8382" d="M30.427,22.496h-1.213l-0.013-4.059c-0.854-0.019-1.705-0.129-2.557-0.332
	c-0.849-0.203-1.701-0.506-2.555-0.908V14.77c0.826,0.574,1.663,1.011,2.508,1.299c0.846,0.293,1.717,0.445,2.615,0.453v-6.146
	c-1.789-0.324-3.089-0.873-3.9-1.646c-0.815-0.772-1.223-1.834-1.223-3.183c0-1.465,0.439-2.62,1.321-3.464
	c0.88-0.847,2.146-1.331,3.802-1.457v-3.168h1.213v3.128c0.746,0.037,1.473,0.124,2.178,0.264c0.707,0.14,1.396,0.33,2.069,0.573
	v2.359c-0.673-0.377-1.36-0.67-2.067-0.876C31.9,2.698,31.173,2.577,30.427,2.54v5.757c1.833,0.314,3.185,0.877,4.054,1.686
	c0.865,0.811,1.301,1.916,1.301,3.318c0,1.52-0.461,2.715-1.383,3.594c-0.92,0.877-2.244,1.383-3.972,1.517V22.496z M29.214,8.055
	v-5.53c-0.942,0.118-1.661,0.414-2.149,0.891c-0.489,0.477-0.734,1.109-0.734,1.9c0,0.772,0.227,1.375,0.682,1.808
	C27.465,7.557,28.199,7.866,29.214,8.055z M30.427,10.643v5.837c1.025-0.149,1.798-0.475,2.319-0.969
	c0.521-0.496,0.781-1.146,0.781-1.955c0-0.793-0.25-1.42-0.748-1.889C32.281,11.201,31.497,10.859,30.427,10.643z"/>
<g>
	<path fill="#7D8382" d="M38.498,12.86h4.475v1.361h-4.475V12.86z"/>
	<path fill="#7D8382" d="M51.771,13.384c0,1.482-0.396,3.085-1.188,4.807h-1.519c0.808-1.594,1.212-3.196,1.212-4.807
		c0-2.213-0.691-3.32-2.075-3.32s-2.075,1.115-2.075,3.346c0,1.594,0.401,3.189,1.203,4.789h-1.527
		c-0.779-1.727-1.17-3.34-1.17-4.84c0-2.971,1.189-4.457,3.569-4.457S51.771,10.396,51.771,13.384z"/>
	<path fill="#7D8382" d="M53.431,13.856c0-3.303,1.162-4.955,3.486-4.955c1.355,0,2.321,0.52,2.896,1.561
		c0.697-1.013,1.45-1.52,2.258-1.52c2.209,0,3.312,1.473,3.312,4.416c-0.011,1.771-0.65,3.438-1.918,4.998h-1.859
		c1.522-1.533,2.283-3.186,2.283-4.956c0.011-2.202-0.625-3.304-1.909-3.304c-0.559,0-1.146,0.515-1.76,1.544
		c0.127,0.409,0.19,1.138,0.19,2.183c-0.154,3.077-1.33,4.615-3.527,4.615C54.582,18.438,53.431,16.911,53.431,13.856z
		 M58.909,13.856c0-2.534-0.67-3.801-2.009-3.801c-1.317,0-1.976,1.267-1.976,3.801c0,2.28,0.653,3.42,1.959,3.42
		C58.234,17.276,58.909,16.137,58.909,13.856z"/>
</g>
</svg>
